<svg width="32" height="32" viewBox="0 0 32 32" fill="none" xmlns="http://www.w3.org/2000/svg">
<rect width="32" height="32" fill="#F3E6F9"/>
<path d="M10 23.8228H16.7332V22.0727H10V23.8228ZM10.6197 14.001H15.6198C15.7642 14.001 15.8907 13.9467 15.999 13.8382C16.1073 13.7297 16.1615 13.6032 16.1615 13.4585C16.1615 13.3137 16.1073 13.1862 15.999 13.0762C15.8907 12.9664 15.7642 12.9115 15.6198 12.9115H10.6197C10.4704 12.9115 10.3418 12.9662 10.2338 13.0755C10.1258 13.1848 10.0718 13.3125 10.0718 13.4585C10.0718 13.6043 10.1258 13.7313 10.2338 13.8393C10.3418 13.9471 10.4704 14.001 10.6197 14.001ZM10.6197 11.4592H15.6198C15.7642 11.4592 15.8907 11.4053 15.999 11.2973C16.1073 11.1893 16.1615 11.0617 16.1615 10.9145C16.1615 10.7672 16.1073 10.6395 15.999 10.5315C15.8907 10.4235 15.7642 10.3695 15.6198 10.3695H10.6197C10.4704 10.3695 10.3418 10.4237 10.2338 10.5322C10.1258 10.6406 10.0718 10.767 10.0718 10.9115C10.0718 11.0607 10.1258 11.1893 10.2338 11.2973C10.3418 11.4053 10.4704 11.4592 10.6197 11.4592ZM20.2273 15.251V13.6375H22.6018V10.7333H20.2273V9.1195H22.512C22.9485 9.1195 23.3276 9.26642 23.6493 9.56025C23.9708 9.85392 24.1515 10.213 24.1915 10.6375V11.3875H26.4115C26.6388 11.3875 26.8307 11.4658 26.987 11.6223C27.1432 11.7788 27.2213 11.9708 27.2213 12.1985C27.2213 12.4137 27.1432 12.6013 26.987 12.7613C26.8307 12.9211 26.6388 13.001 26.4115 13.001H24.1795V13.751C24.1397 14.1715 23.9598 14.5267 23.64 14.8165C23.3202 15.1062 22.9442 15.251 22.512 15.251H20.2273ZM16.2332 20.4593H14.6198V15.751H18.6198V8.6195H10.1198C9.41975 8.6195 8.82808 8.86117 8.34475 9.3445C7.86142 9.82783 7.61975 10.4195 7.61975 11.1195V13.251C7.61975 13.951 7.86142 14.5427 8.34475 15.026C8.82808 15.5093 9.41975 15.751 10.1198 15.751H12.1197V20.4593H10.5V17.3588H10C8.88817 17.3308 7.9435 16.9172 7.166 16.118C6.38867 15.3187 6 14.363 6 13.251V11.1195C6 9.98883 6.40342 9.01958 7.21025 8.21175C8.01692 7.40392 8.98675 7 10.1198 7H18.518C18.9922 7 19.3956 7.16633 19.7283 7.499C20.0609 7.83167 20.2273 8.23508 20.2273 8.70925V15.6615C20.2273 16.1355 20.0609 16.5389 19.7283 16.8717C19.3956 17.2044 18.9922 17.3707 18.518 17.3707H16.2332V20.4593ZM9.661 25.4425C9.304 25.4425 9.00233 25.3174 8.756 25.0673C8.50967 24.8171 8.3865 24.5153 8.3865 24.162V21.7337C8.3865 21.3797 8.50967 21.0788 8.756 20.831C9.00233 20.5832 9.304 20.4593 9.661 20.4593H17.0722C17.4281 20.4593 17.7304 20.5832 17.9793 20.831C18.2283 21.0788 18.3528 21.3797 18.3528 21.7337V24.162C18.3528 24.5153 18.2283 24.8171 17.9793 25.0673C17.7304 25.3174 17.4281 25.4425 17.0722 25.4425H9.661Z" fill="black"/>
</svg>
