<svg width="108" height="20" viewBox="0 0 108 20" fill="none" xmlns="http://www.w3.org/2000/svg">
<path d="M4.20296 17.6763H11.2779V15.8375H4.20296V17.6763ZM4.85415 7.35623H10.1079C10.2597 7.35623 10.3925 7.29923 10.5063 7.18522C10.6202 7.07122 10.6771 6.93821 10.6771 6.7862C10.6771 6.63402 10.6202 6.50014 10.5063 6.38456C10.3925 6.26915 10.2597 6.21145 10.1079 6.21145H4.85415C4.69724 6.21145 4.56205 6.26889 4.44857 6.38377C4.33509 6.49865 4.27835 6.6328 4.27835 6.7862C4.27835 6.93944 4.33509 7.07279 4.44857 7.18627C4.56205 7.29958 4.69724 7.35623 4.85415 7.35623ZM4.85415 4.68551H10.1079C10.2597 4.68551 10.3925 4.62877 10.5063 4.51529C10.6202 4.40181 10.6771 4.26776 10.6771 4.11312C10.6771 3.95831 10.6202 3.82417 10.5063 3.71069C10.3925 3.59721 10.2597 3.54047 10.1079 3.54047H4.85415C4.69724 3.54047 4.56205 3.59747 4.44857 3.71148C4.33509 3.82531 4.27835 3.95814 4.27835 4.10997C4.27835 4.26671 4.33509 4.40181 4.44857 4.51529C4.56205 4.62877 4.69724 4.68551 4.85415 4.68551ZM14.9491 8.66966V6.97429H17.4441V3.92268H14.9491V2.22704H17.3498C17.8085 2.22704 18.2068 2.38141 18.5448 2.69016C18.8826 2.99872 19.0725 3.37603 19.1145 3.82207V4.61012H21.4472C21.686 4.61012 21.8876 4.69234 22.0519 4.85678C22.216 5.02122 22.298 5.22305 22.298 5.46227C22.298 5.68836 22.216 5.88546 22.0519 6.05358C21.8876 6.22152 21.686 6.30549 21.4472 6.30549H19.1019V7.09355C19.0601 7.53538 18.8711 7.90857 18.5351 8.21311C18.199 8.51747 17.8039 8.66966 17.3498 8.66966H14.9491ZM10.7525 14.1422H9.05711V9.19503H13.2601V1.70167H4.32879C3.59327 1.70167 2.97158 1.9556 2.46372 2.46346C1.95586 2.97132 1.70194 3.593 1.70194 4.32852V6.56818C1.70194 7.30369 1.95586 7.92538 2.46372 8.43324C2.97158 8.9411 3.59327 9.19503 4.32879 9.19503H6.43026V14.1422H4.72833V10.8844H4.20296C3.03471 10.8549 2.04211 10.4204 1.22516 9.58065C0.408388 8.74076 0 7.7366 0 6.56818V4.32852C0 3.14049 0.423886 2.12206 1.27166 1.27323C2.11925 0.424411 3.1383 0 4.32879 0H13.1532C13.6514 0 14.0753 0.174774 14.4248 0.52432C14.7744 0.873866 14.9491 1.29775 14.9491 1.79598V9.10098C14.9491 9.59904 14.7744 10.0229 14.4248 10.3726C14.0753 10.7222 13.6514 10.897 13.1532 10.897H10.7525V14.1422ZM3.84676 19.3783C3.47164 19.3783 3.15467 19.2468 2.89584 18.984C2.63701 18.7211 2.50759 18.4041 2.50759 18.0328V15.4813C2.50759 15.1094 2.63701 14.7932 2.89584 14.5328C3.15467 14.2724 3.47164 14.1422 3.84676 14.1422H11.6341C12.0079 14.1422 12.3256 14.2724 12.5871 14.5328C12.8487 14.7932 12.9795 15.1094 12.9795 15.4813V18.0328C12.9795 18.4041 12.8487 18.7211 12.5871 18.984C12.3256 19.2468 12.0079 19.3783 11.6341 19.3783H3.84676Z" fill="black"/>
<path d="M103.779 4.12744V13.6755C103.779 14.1493 103.9 14.4951 104.144 14.7129C104.4 14.9306 104.739 15.0395 105.162 15.0395C105.508 15.0395 105.809 14.9882 106.065 14.8858C106.321 14.7705 106.558 14.6168 106.776 14.4247L107.237 15.9232C106.942 16.1793 106.577 16.3842 106.142 16.5379C105.719 16.6788 105.245 16.7493 104.72 16.7493C104.169 16.7493 103.664 16.6596 103.202 16.4803C102.741 16.301 102.383 16.0128 102.127 15.6158C101.87 15.206 101.736 14.6744 101.723 14.0213V4.70378L103.779 4.12744ZM107.083 6.9515V8.56525H99.8789V6.9515H107.083Z" fill="black"/>
<path d="M92.102 6.95154L94.8108 11.0628L95.195 11.1204L99.0949 16.5572H96.6551L93.831 12.3307L93.3892 12.177L89.6238 6.95154H92.102ZM99.0373 6.95154L95.2719 12.1002L94.8492 12.081L91.7754 16.5572H89.4316L93.5236 11.082L93.9271 11.1204L96.6743 6.95154H99.0373Z" fill="black"/>
<path d="M84.31 16.7493C83.3494 16.7493 82.5041 16.5508 81.7741 16.1537C81.0441 15.7567 80.4741 15.1868 80.0643 14.4439C79.6673 13.6883 79.4688 12.7917 79.4688 11.7543C79.4688 10.7169 79.6673 9.8268 80.0643 9.08397C80.4741 8.32832 81.0377 7.75198 81.7549 7.35495C82.4721 6.95792 83.2854 6.7594 84.1947 6.7594C85.1297 6.7594 85.9237 6.95151 86.5769 7.33574C87.2301 7.71996 87.7296 8.24507 88.0754 8.91106C88.4212 9.57706 88.5941 10.3327 88.5941 11.178C88.5941 11.4085 88.5877 11.6263 88.5749 11.8312C88.5621 12.0361 88.5429 12.2154 88.5173 12.3691H80.7943V10.7938H87.6143L86.5961 11.1012C86.5961 10.2302 86.3784 9.56425 85.943 9.10318C85.5075 8.6293 84.9119 8.39236 84.1563 8.39236C83.6056 8.39236 83.1253 8.52044 82.7155 8.77659C82.3056 9.03274 81.9918 9.41696 81.7741 9.92926C81.5564 10.4288 81.4475 11.0435 81.4475 11.7735C81.4475 12.4908 81.5628 13.0991 81.7933 13.5986C82.0239 14.0981 82.3504 14.4759 82.7731 14.7321C83.1957 14.9882 83.6952 15.1163 84.2716 15.1163C84.912 15.1163 85.4307 14.9946 85.8277 14.7513C86.2247 14.508 86.5385 14.1686 86.769 13.7331L88.402 14.5016C88.1715 14.9626 87.8577 15.3661 87.4606 15.7119C87.0764 16.0449 86.6153 16.301 86.0774 16.4803C85.5395 16.6596 84.9504 16.7493 84.31 16.7493Z" fill="black"/>
<path d="M76.9421 3.87769V16.5571H74.5023L69.6034 8.56524L68.3739 6.31752H68.3547L68.4315 8.37313V16.5571H66.5488V3.87769H68.9694L73.8491 11.8504L75.0979 14.1365H75.1171L75.0402 12.0617V3.87769H76.9421Z" fill="black"/>
<path d="M62.4667 2.62897V13.8676C62.4667 14.3415 62.55 14.668 62.7165 14.8474C62.883 15.0267 63.1583 15.1163 63.5426 15.1163C63.7731 15.1163 63.9652 15.1035 64.1189 15.0779C64.2854 15.0395 64.4903 14.9754 64.7337 14.8858L64.5031 16.4227C64.2854 16.5251 64.0357 16.602 63.7539 16.6532C63.4721 16.7172 63.1904 16.7493 62.9086 16.7493C62.0505 16.7493 61.4165 16.5315 61.0067 16.0961C60.6097 15.6478 60.4111 14.9626 60.4111 14.0405V2.62897H62.4667Z" fill="black"/>
<path d="M53.31 6.7594C54.2449 6.7594 55.071 6.95792 55.7882 7.35495C56.5055 7.75198 57.0626 8.32832 57.4596 9.08397C57.8695 9.8268 58.0744 10.7169 58.0744 11.7543C58.0744 12.7917 57.8695 13.6883 57.4596 14.4439C57.0626 15.1868 56.5055 15.7567 55.7882 16.1537C55.071 16.5508 54.2449 16.7493 53.31 16.7493C52.375 16.7493 51.5489 16.5508 50.8317 16.1537C50.1145 15.7567 49.551 15.1868 49.1411 14.4439C48.7313 13.6883 48.5264 12.7917 48.5264 11.7543C48.5264 10.7169 48.7313 9.8268 49.1411 9.08397C49.551 8.32832 50.1145 7.75198 50.8317 7.35495C51.5489 6.95792 52.375 6.7594 53.31 6.7594ZM53.31 8.37315C52.7336 8.37315 52.2406 8.50763 51.8307 8.77659C51.4337 9.03274 51.1263 9.41056 50.9086 9.91005C50.6908 10.4095 50.582 11.0243 50.582 11.7543C50.582 12.4716 50.6908 13.0863 50.9086 13.5986C51.1263 14.0981 51.4337 14.4823 51.8307 14.7513C52.2406 15.0074 52.7336 15.1355 53.31 15.1355C53.8863 15.1355 54.373 15.0074 54.77 14.7513C55.1671 14.4823 55.4745 14.0981 55.6922 13.5986C55.9099 13.0863 56.0188 12.4716 56.0188 11.7543C56.0188 11.0243 55.9099 10.4095 55.6922 9.91005C55.4745 9.41056 55.1671 9.03274 54.77 8.77659C54.373 8.50763 53.8863 8.37315 53.31 8.37315Z" fill="black"/>
<path d="M41.9828 6.7594C42.9178 6.7594 43.7439 6.95792 44.4611 7.35495C45.1783 7.75198 45.7354 8.32832 46.1325 9.08397C46.5423 9.8268 46.7472 10.7169 46.7472 11.7543C46.7472 12.7917 46.5423 13.6883 46.1325 14.4439C45.7354 15.1868 45.1783 15.7567 44.4611 16.1537C43.7439 16.5508 42.9178 16.7493 41.9828 16.7493C41.0479 16.7493 40.2218 16.5508 39.5046 16.1537C38.7874 15.7567 38.2238 15.1868 37.814 14.4439C37.4041 13.6883 37.1992 12.7917 37.1992 11.7543C37.1992 10.7169 37.4041 9.8268 37.814 9.08397C38.2238 8.32832 38.7874 7.75198 39.5046 7.35495C40.2218 6.95792 41.0479 6.7594 41.9828 6.7594ZM41.9828 8.37315C41.4065 8.37315 40.9134 8.50763 40.5036 8.77659C40.1065 9.03274 39.7991 9.41056 39.5814 9.91005C39.3637 10.4095 39.2548 11.0243 39.2548 11.7543C39.2548 12.4716 39.3637 13.0863 39.5814 13.5986C39.7991 14.0981 40.1065 14.4823 40.5036 14.7513C40.9134 15.0074 41.4065 15.1355 41.9828 15.1355C42.5592 15.1355 43.0459 15.0074 43.4429 14.7513C43.8399 14.4823 44.1473 14.0981 44.365 13.5986C44.5828 13.0863 44.6916 12.4716 44.6916 11.7543C44.6916 11.0243 44.5828 10.4095 44.365 9.91005C44.1473 9.41056 43.8399 9.03274 43.4429 8.77659C43.0459 8.50763 42.5592 8.37315 41.9828 8.37315Z" fill="black"/>
<path d="M37.8397 3.87769V5.64512H33.4979V16.5571H31.4423V5.64512H27.1006V3.87769H37.8397Z" fill="black"/>
</svg>
