<svg width="21" height="18" viewBox="0 0 21 18" fill="none" xmlns="http://www.w3.org/2000/svg">
<path d="M5.7245 2.84675V1.57175C5.7245 1.13958 5.877 0.769584 6.182 0.461751C6.487 0.153917 6.85642 0 7.29025 0H12.9587C13.3926 0 13.762 0.153917 14.067 0.461751C14.372 0.769584 14.5245 1.13958 14.5245 1.57175V2.84675H16.1245C16.4485 2.84675 16.7494 2.92658 17.0273 3.08625C17.3051 3.24575 17.5083 3.47917 17.637 3.7865L20.075 9.5685C20.1703 9.76317 20.2325 9.96267 20.2615 10.167C20.2905 10.3713 20.305 10.5757 20.305 10.78V15.6735C20.305 16.146 20.1387 16.548 19.806 16.8795C19.4733 17.211 19.0699 17.3768 18.5957 17.3768H1.70325C1.23075 17.3768 0.82875 17.211 0.49725 16.8795C0.16575 16.548 0 16.146 0 15.6735V10.78C0 10.5757 0.0145001 10.3713 0.0435001 10.167C0.0725001 9.96267 0.132667 9.76317 0.224 9.5685L2.612 3.7865C2.74067 3.47917 2.94392 3.24575 3.22175 3.08625C3.49958 2.92658 3.8005 2.84675 4.1245 2.84675H5.7245ZM7.29025 2.84675H12.9587V1.57175H7.29025V2.84675ZM5.30325 9.50225V9.07725C5.30325 8.86475 5.37558 8.68658 5.52025 8.54275C5.66475 8.39908 5.84392 8.32725 6.05775 8.32725C6.27142 8.32725 6.44958 8.39908 6.59225 8.54275C6.73492 8.68658 6.80625 8.86475 6.80625 9.07725V9.50225H13.4927V9.07725C13.4927 8.86475 13.5656 8.68658 13.7112 8.54275C13.8567 8.39908 14.0363 8.32725 14.25 8.32725C14.4638 8.32725 14.6416 8.39908 14.7832 8.54275C14.9249 8.68658 14.9957 8.86475 14.9957 9.07725V9.50225H18.1707L16.108 4.556H4.19125L2.12825 9.50225H5.30325ZM5.30325 11.0023H1.70325V15.6735H18.5957V11.0023H14.9957V11.4273C14.9957 11.6398 14.9234 11.8178 14.7787 11.9615C14.6342 12.1053 14.4551 12.1773 14.2412 12.1773C14.0276 12.1773 13.8494 12.1053 13.7067 11.9615C13.5641 11.8178 13.4927 11.6398 13.4927 11.4273V11.0023H6.80625V11.4273C6.80625 11.6398 6.73342 11.8178 6.58775 11.9615C6.44225 12.1053 6.26267 12.1773 6.049 12.1773C5.83517 12.1773 5.65742 12.1053 5.51575 11.9615C5.37408 11.8178 5.30325 11.6398 5.30325 11.4273V11.0023Z" fill="black"/>
</svg>
