<svg width="22" height="17" viewBox="0 0 22 17" fill="none" xmlns="http://www.w3.org/2000/svg">
<path d="M4.84725 10.0565H12.2168C12.4658 10.0565 12.6528 9.97883 12.7778 9.8235C12.9028 9.66833 12.9653 9.4975 12.9653 9.311C12.9653 9.12467 12.9028 8.95233 12.7778 8.794C12.6528 8.63567 12.4658 8.5565 12.2168 8.5565H4.84725C4.63558 8.5565 4.45783 8.62883 4.314 8.7735C4.17033 8.918 4.0985 9.09717 4.0985 9.311C4.0985 9.52467 4.17033 9.70233 4.314 9.844C4.45783 9.98567 4.63558 10.0565 4.84725 10.0565ZM4.8485 5.6485H9.1235C9.336 5.6485 9.51408 5.57617 9.65775 5.4315C9.80158 5.287 9.8735 5.10783 9.8735 4.894C9.8735 4.68033 9.80158 4.50267 9.65775 4.361C9.51408 4.21933 9.336 4.1485 9.1235 4.1485H4.8485C4.636 4.1485 4.45783 4.22075 4.314 4.36525C4.17033 4.50992 4.0985 4.68908 4.0985 4.90275C4.0985 5.11658 4.17033 5.29433 4.314 5.436C4.45783 5.57767 4.636 5.6485 4.8485 5.6485ZM1.70325 14.299C1.23075 14.299 0.82875 14.1332 0.49725 13.8017C0.16575 13.4702 0 13.0682 0 12.5957V1.70925C0 1.23508 0.16575 0.831666 0.49725 0.498999C0.82875 0.166332 1.23075 0 1.70325 0H18.5957C19.0699 0 19.4733 0.166332 19.806 0.498999C20.1387 0.831666 20.305 1.23508 20.305 1.70925V4.08875C20.305 4.32908 20.2216 4.53108 20.0548 4.69475C19.8878 4.85842 19.6837 4.94025 19.4425 4.94025C19.2012 4.94025 18.9997 4.85842 18.838 4.69475C18.6765 4.53108 18.5957 4.32908 18.5957 4.08875V1.70925H1.70325V12.5708H9.1495C9.38983 12.5708 9.59183 12.653 9.7555 12.8175C9.91933 12.982 10.0013 13.1851 10.0013 13.4267C10.0013 13.6684 9.91933 13.8742 9.7555 14.044C9.59183 14.214 9.38983 14.299 9.1495 14.299H1.70325ZM21.162 7.1375C21.2692 7.24483 21.3228 7.37592 21.3228 7.53075C21.3228 7.68558 21.2682 7.81567 21.159 7.921L20.255 8.831L18.8615 7.4375L19.8185 6.4745C19.918 6.37117 20.0314 6.3195 20.1588 6.3195C20.2861 6.3195 20.3995 6.37117 20.499 6.4745L21.162 7.1375ZM19.587 9.499L13.012 16.074C12.9195 16.1653 12.8241 16.2297 12.7257 16.267C12.6272 16.3043 12.5256 16.323 12.4207 16.323H11.7865C11.6745 16.323 11.576 16.2805 11.491 16.1955C11.4062 16.1105 11.3638 16.012 11.3638 15.9V15.2718C11.3638 15.1669 11.3833 15.0648 11.4225 14.9655C11.4618 14.8662 11.5272 14.7712 11.6185 14.6805L18.1935 8.1055L19.587 9.499Z" fill="black"/>
</svg>
