<svg width="12" height="7" viewBox="0 0 12 7" fill="none" xmlns="http://www.w3.org/2000/svg">
<path d="M5.77637 0.5C5.87021 0.5 5.94626 0.52829 6.02637 0.608398L10.9697 5.55273C11.0517 5.63472 11.0781 5.7086 11.0781 5.7959C11.0781 5.88314 11.0517 5.95712 10.9697 6.03906C10.8917 6.11706 10.8147 6.14746 10.7139 6.14746C10.6133 6.14738 10.5369 6.11689 10.459 6.03906L10.458 6.03809L6.12891 1.73438L5.77539 1.38281L1.09473 6.06348C1.01698 6.14122 0.950758 6.16309 0.870117 6.16016C0.775851 6.15671 0.694454 6.12512 0.608398 6.03906C0.530288 5.96094 0.5 5.8841 0.5 5.7832C0.500009 5.68232 0.530285 5.60546 0.608398 5.52734L5.52734 0.608398C5.60734 0.528399 5.6827 0.500077 5.77637 0.5Z" fill="black" stroke="black"/>
</svg>
