<svg width="21" height="18" viewBox="0 0 21 18" fill="none" xmlns="http://www.w3.org/2000/svg">
<path d="M8.14825 7.799C7.00358 7.799 6.06775 7.4355 5.34075 6.7085C4.61358 5.98133 4.25 5.04542 4.25 3.90075C4.25 2.75608 4.61358 1.81983 5.34075 1.092C6.06775 0.364 7.00358 0 8.14825 0C9.29292 0 10.2302 0.364 10.96 1.092C11.69 1.81983 12.055 2.75608 12.055 3.90075C12.055 5.04542 11.69 5.98133 10.96 6.7085C10.2302 7.4355 9.29292 7.799 8.14825 7.799ZM0 14.4258V13.6183C0 12.9906 0.159833 12.4251 0.4795 11.9218C0.799 11.4186 1.23442 11.04 1.78575 10.786C2.75108 10.3567 3.74625 10.0047 4.77125 9.73C5.79625 9.45533 6.84608 9.318 7.92075 9.318C8.16592 9.318 8.37017 9.39983 8.5335 9.5635C8.69667 9.72717 8.77825 9.92975 8.77825 10.1713C8.77825 10.4169 8.69542 10.622 8.52975 10.7865C8.36408 10.951 8.16108 11.0333 7.92075 11.0333C6.97392 11.0333 6.047 11.1469 5.14 11.3743C4.233 11.6016 3.35275 11.9287 2.49925 12.3555C2.26858 12.4875 2.07825 12.666 1.92825 12.891C1.77825 13.1162 1.70325 13.3663 1.70325 13.6415V14.4258H7.95175C8.19208 14.4258 8.39408 14.508 8.55775 14.6725C8.72142 14.837 8.80325 15.0401 8.80325 15.2818C8.80325 15.5234 8.72142 15.725 8.55775 15.8865C8.39408 16.0482 8.19208 16.129 7.95175 16.129H1.70325C1.23075 16.129 0.82875 15.9622 0.49725 15.6285C0.16575 15.2948 0 14.8939 0 14.4258ZM14.8092 16.5403L14.6403 15.4833C14.3649 15.4039 14.0854 15.2871 13.8018 15.1328C13.5181 14.9784 13.2802 14.8033 13.088 14.6073L12.162 14.8013C12.0168 14.8386 11.8787 14.8294 11.7475 14.7738C11.6163 14.7183 11.5139 14.6278 11.4403 14.5023L11.2867 14.2403C11.1978 14.0951 11.1658 13.9478 11.1908 13.7985C11.2158 13.6492 11.2843 13.5205 11.3963 13.4125L12.2033 12.6555C12.1659 12.5175 12.1483 12.3182 12.1503 12.0575C12.1523 11.7968 12.1699 11.5998 12.2033 11.4663L11.3903 10.6963C11.2826 10.6059 11.2162 10.4838 11.191 10.3298C11.1658 10.1756 11.1972 10.034 11.285 9.905L11.4403 9.5935C11.5141 9.4665 11.6113 9.37975 11.732 9.33325C11.8527 9.28692 11.9857 9.28042 12.131 9.31375L13.088 9.50775C13.2802 9.31575 13.5181 9.14158 13.8018 8.98525C14.0854 8.82892 14.3649 8.713 14.6403 8.6375L14.8092 7.5865C14.8434 7.4015 14.9259 7.25142 15.0567 7.13625C15.1876 7.02125 15.3402 6.96375 15.5145 6.96375H15.7397C15.9096 6.96375 16.0596 7.02158 16.1897 7.13725C16.3199 7.25292 16.4036 7.40067 16.4408 7.5805L16.6117 8.63675C16.8819 8.71275 17.1598 8.82892 17.4455 8.98525C17.7312 9.14158 17.9697 9.31575 18.1612 9.50775L19.094 9.31375C19.2353 9.28042 19.3722 9.29058 19.5045 9.34425C19.6368 9.39808 19.7386 9.4895 19.8097 9.6185L19.9625 9.87275C20.052 10.0233 20.0833 10.1722 20.0562 10.3195C20.0293 10.4667 19.9597 10.5943 19.8477 10.7023L19.0408 11.4653C19.0821 11.6019 19.1017 11.7999 19.0998 12.0593C19.0977 12.3188 19.0781 12.5175 19.0408 12.6555L19.846 13.4108C19.9592 13.5073 20.0293 13.6333 20.0562 13.789C20.0833 13.9447 20.0531 14.0868 19.9657 14.2153L19.8097 14.5273C19.7351 14.6559 19.6367 14.7421 19.5145 14.7858C19.3922 14.8294 19.2583 14.8346 19.113 14.8013L18.162 14.6073C17.97 14.8033 17.7312 14.9784 17.4455 15.1328C17.1598 15.2871 16.8812 15.4039 16.6097 15.4833L16.4408 16.5343C16.4031 16.7179 16.3185 16.8667 16.187 16.9805C16.0555 17.0943 15.9041 17.1513 15.7327 17.1513H15.5128C15.3414 17.1513 15.1897 17.0943 15.0577 16.9803C14.9257 16.8664 14.8429 16.7198 14.8092 16.5403ZM15.625 14.0245C16.2123 14.0245 16.6865 13.8442 17.0475 13.4835C17.4087 13.1228 17.5893 12.6475 17.5893 12.0575C17.5893 11.4675 17.4087 10.9921 17.0475 10.6313C16.6863 10.2706 16.2119 10.0903 15.6242 10.0903C15.0367 10.0903 14.5617 10.2708 14.199 10.632C13.8363 10.993 13.655 11.4672 13.655 12.0545C13.655 12.6465 13.8365 13.1228 14.1995 13.4835C14.5625 13.8442 15.0377 14.0245 15.625 14.0245ZM8.14825 6.09575C8.78308 6.09575 9.30808 5.88858 9.72325 5.47425C10.1383 5.05975 10.3458 4.53492 10.3458 3.89975C10.3458 3.26292 10.1386 2.73767 9.72425 2.324C9.31008 1.91033 8.78558 1.7035 8.15075 1.7035C7.51592 1.7035 6.99092 1.91042 6.57575 2.32425C6.16075 2.73825 5.95325 3.26242 5.95325 3.89675C5.95325 4.53292 6.16042 5.05842 6.57475 5.47325C6.98892 5.88825 7.51342 6.09575 8.14825 6.09575Z" fill="black"/>
</svg>
