<svg width="11" height="20" viewBox="0 0 11 20" fill="none" xmlns="http://www.w3.org/2000/svg">
<path d="M8.12121 9.67075L0.317957 1.8675C0.114623 1.66417 0.0120399 1.41108 0.0102066 1.10825C0.00820657 0.805417 0.10879 0.546 0.311957 0.33C0.531957 0.11 0.794373 0 1.09921 0C1.40404 0 1.66446 0.11 1.88046 0.33L10.0397 8.47725C10.2097 8.64725 10.333 8.83583 10.4095 9.043C10.4861 9.25033 10.5245 9.45958 10.5245 9.67075C10.5245 9.88192 10.4861 10.0912 10.4095 10.2985C10.333 10.5057 10.2097 10.6943 10.0397 10.8643L1.86146 19.0425C1.64146 19.2625 1.38421 19.3683 1.08971 19.36C0.795206 19.3517 0.537957 19.2375 0.317957 19.0175C0.114623 18.7975 0.00878954 18.5403 0.000456203 18.2458C-0.00787713 17.9513 0.0979565 17.694 0.317957 17.474L8.12121 9.67075Z" fill="black"/>
</svg>
