<svg width="16" height="16" viewBox="0 0 16 16" fill="none" xmlns="http://www.w3.org/2000/svg">
<path d="M7.82129 0.5C7.90691 0.500059 7.98026 0.526325 8.0625 0.608398C8.1448 0.694341 8.1709 0.771445 8.1709 0.857422C8.17081 0.944261 8.14426 1.01826 8.0625 1.10059L1.70117 7.46191H15.1113C15.2328 7.46193 15.3079 7.49726 15.3721 7.56055C15.4342 7.6219 15.4687 7.69362 15.4688 7.81348C15.4688 7.93333 15.4342 8.00505 15.3721 8.06641C15.3079 8.12969 15.2328 8.16502 15.1113 8.16504H1.70117L8.05664 14.5205V14.5195C8.1389 14.602 8.16719 14.6788 8.16797 14.7705V14.7715C8.16849 14.838 8.15383 14.8964 8.1123 14.9561L8.06055 15.0176C7.9806 15.0985 7.90742 15.1248 7.81836 15.124C7.72391 15.1231 7.6456 15.0931 7.5625 15.0107L0.614258 8.0625C0.561096 8.00833 0.5354 7.9662 0.523438 7.9375V7.93652C0.50833 7.90019 0.5 7.8601 0.5 7.8125C0.50003 7.76491 0.508641 7.72576 0.523438 7.69043V7.68945C0.535302 7.66099 0.560769 7.61862 0.614258 7.56445L7.56445 0.614258C7.65485 0.527034 7.73453 0.5 7.82129 0.5Z" fill="black" stroke="black"/>
</svg>
