<svg width="11" height="20" viewBox="0 0 11 20" fill="none" xmlns="http://www.w3.org/2000/svg">
<path d="M2.40925 9.69228L10.2125 17.4955C10.4117 17.6989 10.5122 17.9529 10.5143 18.2578C10.5163 18.5626 10.4157 18.825 10.2125 19.045C9.9925 19.261 9.73008 19.369 9.42525 19.369C9.12042 19.369 8.86 19.261 8.644 19.045L0.48475 10.8858C0.31475 10.7158 0.1915 10.5272 0.115 10.32C0.0383335 10.1127 0 9.90345 0 9.69228C0 9.48111 0.0383335 9.27186 0.115 9.06453C0.1915 8.85736 0.31475 8.66878 0.48475 8.49878L8.669 0.32053C8.885 0.10053 9.14025 -0.0062202 9.43475 0.000279801C9.72925 0.00661313 9.9885 0.119697 10.2125 0.33953C10.4117 0.55953 10.5154 0.81778 10.5238 1.11428C10.5321 1.41078 10.4283 1.66903 10.2125 1.88903L2.40925 9.69228Z" fill="black"/>
</svg>
