<svg width="17" height="19" viewBox="0 0 17 19" fill="none" xmlns="http://www.w3.org/2000/svg">
<path d="M2.836 18.4125C2.36183 18.4125 1.95842 18.2467 1.62575 17.9153C1.29308 17.5837 1.12675 17.1817 1.12675 16.7092V2.56075H0.85175C0.61125 2.56075 0.409167 2.4785 0.2455 2.314C0.0818335 2.1495 0 1.94642 0 1.70475C0 1.46308 0.0818335 1.2615 0.2455 1.1C0.409167 0.938333 0.61125 0.857501 0.85175 0.857501H4.957C4.957 0.613001 5.03892 0.408917 5.20275 0.24525C5.36642 0.0817499 5.56842 0 5.80875 0H10.9028C11.1431 0 11.3452 0.082917 11.509 0.24875C11.6727 0.41475 11.7545 0.617668 11.7545 0.857501H15.8658C16.1063 0.857501 16.3083 0.939751 16.472 1.10425C16.6357 1.26875 16.7175 1.47183 16.7175 1.7135C16.7175 1.95517 16.6357 2.15683 16.472 2.3185C16.3083 2.48 16.1063 2.56075 15.8658 2.56075H15.5908V16.7092C15.5908 17.1817 15.4244 17.5837 15.0918 17.9153C14.7591 18.2467 14.3557 18.4125 13.8815 18.4125H2.836ZM13.8815 2.56075H2.836V16.7092H13.8815V2.56075ZM6.26125 14.607C6.48892 14.607 6.67858 14.5299 6.83025 14.3758C6.98192 14.2214 7.05775 14.0326 7.05775 13.8092V5.42975C7.05775 5.20642 6.98017 5.01767 6.825 4.8635C6.66983 4.70917 6.48 4.632 6.2555 4.632C6.02583 4.632 5.83517 4.70917 5.6835 4.8635C5.53183 5.01767 5.456 5.20642 5.456 5.42975V13.8092C5.456 14.0326 5.53325 14.2214 5.68775 14.3758C5.84242 14.5299 6.03358 14.607 6.26125 14.607ZM10.4692 14.607C10.6941 14.607 10.8833 14.5299 11.037 14.3758C11.1907 14.2214 11.2675 14.0326 11.2675 13.8092V5.42975C11.2675 5.20642 11.1894 5.01767 11.0332 4.8635C10.8771 4.70917 10.686 4.632 10.46 4.632C10.2338 4.632 10.0439 4.70917 9.89025 4.8635C9.73658 5.01767 9.65975 5.20642 9.65975 5.42975V13.8092C9.65975 14.0326 9.73842 14.2214 9.89575 14.3758C10.0531 14.5299 10.2443 14.607 10.4692 14.607Z" fill="black"/>
</svg>
