<svg width="18" height="18" viewBox="0 0 18 18" fill="none" xmlns="http://www.w3.org/2000/svg">
<path d="M8.9988 1.62091C11.4032 1.62091 11.6878 1.63159 12.6332 1.67378C13.5123 1.71258 13.9864 1.85994 14.303 1.98311C14.7215 2.14509 15.0235 2.34194 15.3362 2.65465C15.6528 2.97129 15.8458 3.26994 16.0111 3.68838C16.1343 4.00503 16.2816 4.48253 16.3204 5.35822C16.3626 6.3076 16.3733 6.59218 16.3733 8.99318C16.3733 11.3942 16.3626 11.6821 16.3204 12.6281C16.2816 13.5072 16.1343 13.9813 16.0111 14.298C15.8491 14.7164 15.6528 15.0184 15.3396 15.3311C15.0229 15.6478 14.7243 15.8407 14.3064 16.0061C13.9898 16.1292 13.5117 16.2766 12.6366 16.3154C11.6872 16.3576 11.4026 16.3683 9.00161 16.3683C6.60062 16.3683 6.31266 16.3576 5.36666 16.3154C4.48759 16.2766 4.01346 16.1292 3.69682 16.0061C3.27838 15.8441 2.97635 15.6478 2.66308 15.3345C2.34644 15.0179 2.15353 14.7192 1.98817 14.3013C1.865 13.9847 1.71765 13.5066 1.67884 12.6315C1.63666 11.6821 1.62597 11.3975 1.62597 8.99655C1.62597 6.59556 1.63666 6.3076 1.67884 5.3616C1.71765 4.48253 1.865 4.0084 1.98817 3.69176C2.15015 3.27331 2.347 2.97129 2.65971 2.65802C2.97635 2.34137 3.275 2.14846 3.69344 1.98311C4.01009 1.85994 4.48759 1.71258 5.36328 1.67378C6.30872 1.63159 6.59387 1.62091 8.99824 1.62091H8.9988ZM8.9988 0.000562425C6.55563 0.000562425 6.25023 0.0112485 5.29017 0.0534304C4.33405 0.0956122 3.67657 0.250279 3.1074 0.471875C2.51348 0.703594 2.01067 1.00955 1.5118 1.51236C1.00899 2.01179 0.703031 2.51404 0.471312 3.10459C0.249717 3.6777 0.0950498 4.33123 0.0528679 5.28736C0.0106861 6.25079 0 6.55619 0 8.99936C0 11.4425 0.0106861 11.7479 0.0528679 12.708C0.0950498 13.6641 0.249717 14.3216 0.471312 14.8908C0.703594 15.4847 1.00899 15.9875 1.5118 16.4864C2.01067 16.9852 2.51348 17.2951 3.10402 17.5235C3.67713 17.7451 4.33067 17.8997 5.28679 17.9419C6.24629 17.9841 6.55225 17.9948 8.99543 17.9948C11.4386 17.9948 11.7446 17.9841 12.7041 17.9419C13.6602 17.8997 14.3177 17.7451 14.8868 17.5235C15.4774 17.2951 15.9802 16.9858 16.4791 16.4864C16.9779 15.9869 17.2878 15.4847 17.5162 14.8941C17.7378 14.321 17.8924 13.6675 17.9346 12.7114C17.9768 11.7519 17.9875 11.4459 17.9875 9.00274C17.9875 6.55956 17.9768 6.25417 17.9346 5.29411C17.8924 4.33798 17.7378 3.68051 17.5162 3.11133C17.2946 2.51348 16.9886 2.01123 16.4864 1.5118C15.9875 1.01293 15.4847 0.703031 14.8941 0.474687C14.321 0.253091 13.6675 0.0984244 12.7114 0.0562425C11.7485 0.0106861 11.4425 0 8.99936 0L8.9988 0.000562425Z" fill="black"/>
</svg>
