<svg width="18" height="20" viewBox="0 0 18 20" fill="none" xmlns="http://www.w3.org/2000/svg">
<path fill-rule="evenodd" clip-rule="evenodd" d="M17.73 5.12L17.59 4.87C17.4094 4.56769 17.1547 4.31643 16.85 4.14L10.14 0.27C9.8362 0.09375 9.4913 0.00062 9.14 0H8.85C8.4987 0.00062 8.1538 0.09375 7.85 0.27L1.14 4.15C0.836969 4.32526 0.58526 4.57697 0.41 4.88L0.27 5.13C0.0937499 5.43384 0.00062 5.77874 0 6.13V13.88C0.00062 14.2313 0.0937499 14.5762 0.27 14.88L0.41 15.13C0.58979 15.4295 0.84049 15.6802 1.14 15.86L7.86 19.73C8.1623 19.9099 8.5082 20.0033 8.86 20H9.14C9.4913 19.9994 9.8362 19.9063 10.14 19.73L16.85 15.85C17.156 15.6787 17.4087 15.426 17.58 15.12L17.73 14.87C17.9041 14.5653 17.9971 14.221 18 13.87V6.12C17.9994 5.76874 17.9063 5.42384 17.73 5.12ZM8.85 2H9.14L15 5.38L9 8.84L3 5.38L8.85 2ZM10 17.5L15.85 14.12L16 13.87V7.11L10 10.58V17.5Z" fill="black"/>
</svg>
