<svg width="18" height="19" viewBox="0 0 18 19" fill="none" xmlns="http://www.w3.org/2000/svg">
<path d="M1.70325 18.305C1.24325 18.305 0.844417 18.1361 0.50675 17.7983C0.168917 17.4606 0 17.0617 0 16.6017V1.70925C0 1.24758 0.168917 0.847332 0.50675 0.508499C0.844417 0.169499 1.24325 0 1.70325 0H8.30875C8.54908 0 8.75108 0.0834154 8.91475 0.250249C9.07842 0.417249 9.16025 0.621333 9.16025 0.8625C9.16025 1.10383 9.07842 1.30533 8.91475 1.467C8.75108 1.6285 8.54908 1.70925 8.30875 1.70925H1.70325V16.6017H8.30875C8.54908 16.6017 8.75108 16.684 8.91475 16.8485C9.07842 17.013 9.16025 17.2161 9.16025 17.4577C9.16025 17.6994 9.07842 17.901 8.91475 18.0625C8.75108 18.2242 8.54908 18.305 8.30875 18.305H1.70325ZM15.0412 10.0072H6.96525C6.72492 10.0072 6.52292 9.92492 6.35925 9.76025C6.19558 9.59575 6.11375 9.39267 6.11375 9.151C6.11375 8.9095 6.19558 8.70792 6.35925 8.54625C6.52292 8.38458 6.72492 8.30375 6.96525 8.30375H14.9912L13.068 6.3805C12.898 6.20967 12.8172 6.00958 12.8255 5.78025C12.8338 5.55075 12.923 5.352 13.093 5.184C13.2628 5.01217 13.4653 4.92725 13.7003 4.92925C13.9351 4.93125 14.1388 5.01717 14.3115 5.187L17.7083 8.58375C17.8741 8.75508 17.957 8.95433 17.957 9.1815C17.957 9.40867 17.8741 9.60725 17.7083 9.77725L14.3365 13.149C14.1698 13.3188 13.9718 13.4006 13.7423 13.3942C13.5126 13.3879 13.3096 13.2998 13.1332 13.13C12.9697 12.96 12.8869 12.7572 12.8847 12.5215C12.8826 12.2857 12.9687 12.0823 13.143 11.9115L15.0412 10.0072Z" fill="black"/>
</svg>
